<svg width="25.000000" height="29.000000" viewBox="0 0 25 29" fill="none" xmlns="http://www.w3.org/2000/svg" xmlns:xlink="http://www.w3.org/1999/xlink">
	<desc>
			Created with Pixso.
	</desc>
	<defs/>
	<path id="Vector" d="M12.5 12.24C13.74 12.24 14.95 11.88 15.98 11.21C17.01 10.53 17.81 9.58 18.28 8.46C18.76 7.34 18.88 6.11 18.64 4.92C18.4 3.73 17.8 2.64 16.93 1.79C16.05 0.93 14.94 0.35 13.72 0.11C12.51 -0.12 11.25 0 10.11 0.46C8.97 0.92 7.99 1.71 7.3 2.72C6.62 3.72 6.25 4.91 6.25 6.12C6.25 7.74 6.91 9.29 8.08 10.44C9.26 11.59 10.85 12.23 12.5 12.24ZM12.5 1.88C13.36 1.88 14.2 2.13 14.91 2.59C15.62 3.06 16.18 3.72 16.5 4.49C16.83 5.27 16.92 6.12 16.75 6.94C16.58 7.76 16.17 8.52 15.57 9.11C14.96 9.7 14.19 10.11 13.35 10.27C12.51 10.44 11.64 10.35 10.85 10.03C10.06 9.71 9.38 9.17 8.9 8.47C8.43 7.77 8.17 6.95 8.17 6.12C8.18 4.99 8.63 3.92 9.44 3.12C10.26 2.33 11.36 1.88 12.5 1.88Z" fill="#FFFFFF" fill-opacity="1.000000" fill-rule="nonzero"/>
	<path id="Vector" d="M12.5 13.18C9.18 13.18 6 14.47 3.66 16.76C1.32 19.06 0 22.17 0 25.41L0 27.3C0 27.55 0.1 27.79 0.28 27.97C0.46 28.15 0.7 28.25 0.96 28.25C1.21 28.25 1.46 28.15 1.64 27.97C1.82 27.79 1.92 27.55 1.92 27.3L1.92 25.41C1.95 22.68 3.07 20.08 5.05 18.16C7.03 16.24 9.71 15.16 12.5 15.16C15.28 15.16 17.96 16.24 19.94 18.16C21.92 20.08 23.04 22.68 23.07 25.41L23.07 26.36L4.81 26.36C4.55 26.36 4.31 26.46 4.13 26.64C3.95 26.81 3.84 27.05 3.84 27.3C3.84 27.55 3.95 27.79 4.13 27.97C4.31 28.15 4.55 28.25 4.81 28.25L24.03 28.25C24.29 28.25 24.53 28.15 24.71 27.97C24.89 27.79 25 27.55 25 27.3L25 25.41C24.99 22.17 23.67 19.06 21.33 16.76C18.99 14.47 15.81 13.18 12.5 13.18Z" fill="#FFFFFF" fill-opacity="1.000000" fill-rule="nonzero"/>
</svg>
