<!-- icon666.com - MILLIONS vector ICONS FREE --><svg version="1.1" id="Capa_1" xmlns="http://www.w3.org/2000/svg" xmlns:xlink="http://www.w3.org/1999/xlink" x="0px" y="0px" viewBox="0 0 512 512" style="enable-background:new 0 0 512 512;" xml:space="preserve"><circle style="fill:#E3AA75;" cx="256" cy="256" r="107.36"></circle><g><circle style="fill:#FFFFFF;" cx="214.71" cy="214.71" r="16.516"></circle><circle style="fill:#FFFFFF;" cx="297.29" cy="297.29" r="16.516"></circle><circle style="fill:#FFFFFF;" cx="297.29" cy="214.71" r="16.516"></circle><circle style="fill:#FFFFFF;" cx="214.71" cy="297.29" r="16.516"></circle></g><path style="fill:#F7D291;" d="M397.217,173.176l-58.393-58.393c-6.45-6.45-6.45-16.907,0-23.357l70.072-70.072l81.751,81.751 l-70.072,70.072C414.124,179.626,403.667,179.626,397.217,173.176z"></path><g><path style="fill:#FFE1A0;" d="M502.325,68.068L443.932,9.675c-12.9-12.9-33.815-12.9-46.715,0l-58.393,58.393 c-6.45,6.45-6.45,16.907,0,23.357l0,0c6.45,6.45,16.907,6.45,23.357,0l58.393-58.393l58.393,58.393l-58.393,58.393 c-6.45,6.45-6.45,16.907,0,23.357l0,0c6.45,6.45,16.907,6.45,23.357,0l58.393-58.393 C515.225,101.883,515.225,80.968,502.325,68.068z"></path><rect x="390.955" y="71.486" transform="matrix(-0.7071 -0.7071 0.7071 -0.7071 681.4997 441.7739)" style="fill:#FFE1A0;" width="82.579" height="16.516"></rect></g><g><path style="fill:#FFEDB1;" d="M338.824,91.426L338.824,91.426c6.45,6.45,16.907,6.45,23.357,0l46.715-46.715l0,0 c-6.45-6.45-16.907-6.45-23.357,0L338.824,91.426z"></path><path style="fill:#FFEDB1;" d="M420.574,173.176L420.574,173.176c6.45,6.45,16.907,6.45,23.357,0l58.393-58.393l0,0 c-6.45-6.45-16.907-6.45-23.357,0L420.574,173.176z"></path></g><path style="fill:#FFE1A0;" d="M385.538,161.498l-35.036-35.036l35.036-35.036c6.45-6.45,16.907-6.45,23.357,0l11.679,11.679 c6.45,6.45,6.45,16.907,0,23.357L385.538,161.498z"></path><path style="fill:#F7D291;" d="M173.176,397.217l-58.393-58.393c-6.45-6.45-16.907-6.45-23.357,0l-70.072,70.072l81.751,81.751 l70.072-70.072C179.626,414.124,179.626,403.667,173.176,397.217z"></path><g><path style="fill:#FFE1A0;" d="M68.068,502.325L9.675,443.932c-12.9-12.9-12.9-33.815,0-46.715l58.393-58.393 c6.45-6.45,16.907-6.45,23.357,0l0,0c6.45,6.45,6.45,16.907,0,23.357l-58.393,58.393l58.393,58.393l58.393-58.393 c6.45-6.45,16.907-6.45,23.357,0l0,0c6.45,6.45,6.45,16.907,0,23.357l-58.393,58.393 C101.883,515.225,80.968,515.225,68.068,502.325z"></path><rect x="38.46" y="423.991" transform="matrix(-0.7071 -0.7071 0.7071 -0.7071 -169.5049 794.2862)" style="fill:#FFE1A0;" width="82.579" height="16.516"></rect></g><g><path style="fill:#FFEDB1;" d="M91.426,338.824L91.426,338.824c6.45,6.45,6.45,16.907,0,23.357l-46.715,46.715l0,0 c-6.45-6.45-6.45-16.907,0-23.357L91.426,338.824z"></path><path style="fill:#FFEDB1;" d="M173.176,420.574L173.176,420.574c6.45,6.45,6.45,16.907,0,23.357l-58.393,58.393l0,0 c-6.45-6.45-6.45-16.907,0-23.357L173.176,420.574z"></path></g><path style="fill:#FFE1A0;" d="M161.498,385.538l-35.036-35.036l-35.036,35.036c-6.45,6.45-6.45,16.907,0,23.357l11.679,11.679 c6.45,6.45,16.907,6.45,23.357,0L161.498,385.538z"></path><path style="fill:#F7D291;" d="M397.217,338.824l-58.393,58.393c-6.45,6.45-6.45,16.907,0,23.357l70.072,70.072l81.751-81.751 l-70.072-70.072C414.124,332.374,403.667,332.374,397.217,338.824z"></path><g><path style="fill:#FFE1A0;" d="M502.325,443.932l-58.393,58.393c-12.9,12.9-33.815,12.9-46.715,0l-58.393-58.393 c-6.45-6.45-6.45-16.907,0-23.357l0,0c6.45-6.45,16.907-6.45,23.357,0l58.393,58.393l58.393-58.393l-58.393-58.393 c-6.45-6.45-6.45-16.907,0-23.357l0,0c6.45-6.45,16.907-6.45,23.357,0l58.393,58.393 C515.225,410.117,515.225,431.032,502.325,443.932z"></path><rect x="390.954" y="423.998" transform="matrix(-0.7071 0.7071 -0.7071 -0.7071 1043.537 432.2642)" style="fill:#FFE1A0;" width="82.579" height="16.516"></rect></g><g><path style="fill:#FFEDB1;" d="M338.824,420.574L338.824,420.574c6.45-6.45,16.907-6.45,23.357,0l46.715,46.715l0,0 c-6.45,6.45-16.907,6.45-23.357,0L338.824,420.574z"></path><path style="fill:#FFEDB1;" d="M420.574,338.824L420.574,338.824c6.45-6.45,16.907-6.45,23.357,0l58.393,58.393l0,0 c-6.45,6.45-16.907,6.45-23.357,0L420.574,338.824z"></path></g><path style="fill:#FFE1A0;" d="M385.538,350.502l-35.036,35.036l35.036,35.036c6.45,6.45,16.907,6.45,23.357,0l11.679-11.679 c6.45-6.45,6.45-16.907,0-23.357L385.538,350.502z"></path><path style="fill:#F7D291;" d="M173.176,114.783l-58.393,58.393c-6.45,6.45-16.907,6.45-23.357,0l-70.072-70.072l81.751-81.751 l70.072,70.072C179.626,97.876,179.626,108.333,173.176,114.783z"></path><g><path style="fill:#FFE1A0;" d="M68.068,9.675L9.675,68.068c-12.9,12.9-12.9,33.815,0,46.715l58.393,58.393 c6.45,6.45,16.907,6.45,23.357,0l0,0c6.45-6.45,6.45-16.907,0-23.357L33.032,91.426l58.393-58.393l58.393,58.393 c6.45,6.45,16.907,6.45,23.357,0l0,0c6.45-6.45,6.45-16.907,0-23.357L114.783,9.675C101.883-3.225,80.968-3.225,68.068,9.675z"></path><rect x="38.459" y="71.493" transform="matrix(-0.7071 0.7071 -0.7071 -0.7071 192.5323 79.7519)" style="fill:#FFE1A0;" width="82.579" height="16.516"></rect></g><g><path style="fill:#FFEDB1;" d="M91.426,173.176L91.426,173.176c6.45-6.45,6.45-16.907,0-23.357l-46.715-46.715l0,0 c-6.45,6.45-6.45,16.907,0,23.357L91.426,173.176z"></path><path style="fill:#FFEDB1;" d="M173.176,91.426L173.176,91.426c6.45-6.45,6.45-16.907,0-23.357L114.783,9.675l0,0 c-6.45,6.45-6.45,16.907,0,23.357L173.176,91.426z"></path></g><path style="fill:#FFE1A0;" d="M161.498,126.462l-35.036,35.036l-35.036-35.036c-6.45-6.45-6.45-16.907,0-23.357l11.679-11.679 c6.45-6.45,16.907-6.45,23.357,0L161.498,126.462z"></path><path style="fill:#D29B6E;" d="M268.387,350.968c-59.29,0-107.355-48.065-107.355-107.355c0-26.491,9.585-50.737,25.489-69.46 c-23.182,19.692-37.876,49.048-37.876,81.847c0,59.29,48.065,107.355,107.355,107.355c32.799,0,62.17-14.72,81.862-37.902 C319.139,341.357,294.878,350.968,268.387,350.968z"></path></svg>